<?xml version="1.0" standalone="no"?>
<!DOCTYPE svg PUBLIC "-//W3C//DTD SVG 20010904//EN"
 "http://www.w3.org/TR/2001/REC-SVG-20010904/DTD/svg10.dtd">
<svg version="1.0" xmlns="http://www.w3.org/2000/svg"
 width="700.000000pt" height="700.000000pt" viewBox="0 0 700.000000 700.000000"
 preserveAspectRatio="xMidYMid meet">
<metadata>
Created by potrace 1.14, written by Peter Selinger 2001-2017
</metadata>
<g transform="translate(0.000000,700.000000) scale(0.100000,-0.100000)"
fill="#000000" stroke="none">
<path d="M3248 6775 c-2 -2 -30 -6 -63 -9 -682 -64 -1335 -348 -1855 -806
-121 -107 -261 -251 -350 -360 -25 -30 -47 -57 -50 -60 -38 -35 -201 -277
-278 -411 -132 -228 -275 -575 -318 -764 -1 -5 -9 -37 -18 -70 -16 -61 -51
-238 -61 -310 -4 -22 -8 -50 -10 -61 -27 -165 -27 -665 -1 -834 2 -14 7 -47
11 -75 29 -218 131 -590 204 -750 5 -11 28 -63 51 -115 46 -105 109 -226 178
-340 46 -77 181 -276 212 -314 10 -11 52 -61 93 -111 383 -461 920 -821 1506
-1009 124 -40 299 -85 396 -101 17 -3 43 -8 58 -11 39 -8 55 -10 262 -34 74
-8 562 -6 605 3 14 3 54 8 89 12 35 3 67 7 70 9 3 2 31 7 61 10 240 28 632
155 915 296 442 220 815 523 1127 915 50 62 199 280 237 345 214 367 356 756
417 1136 3 20 7 45 9 55 2 10 7 49 10 86 4 37 11 91 15 118 8 53 6 576 -3 610
-2 11 -8 47 -11 80 -8 67 -31 208 -50 300 -48 231 -166 558 -286 790 -85 164
-201 353 -274 447 -12 14 -32 41 -46 59 -381 506 -969 922 -1580 1117 -95 31
-191 59 -226 67 -11 2 -50 11 -89 19 -84 19 -222 43 -290 51 -27 3 -70 8 -95
12 -47 6 -566 13 -572 8z m777 -1699 c407 -51 667 -250 756 -581 17 -62 22
-111 23 -215 1 -151 -5 -195 -39 -293 -48 -140 -140 -250 -277 -332 l-66 -40
54 -22 c213 -86 364 -278 417 -528 22 -103 16 -336 -11 -437 -65 -241 -223
-452 -427 -571 -71 -41 -215 -94 -283 -103 -26 -3 -49 -8 -52 -9 -3 -2 -33 -6
-65 -10 -33 -4 -71 -9 -85 -12 -14 -3 -393 -7 -842 -8 l-818 -2 0 41 c-1 54
-1 3085 0 3112 l0 20 828 -1 c455 -1 854 -5 887 -9z"/>
<path d="M2944 4525 c-2 -5 -3 -163 -2 -350 l3 -340 405 1 c435 0 505 4 595
33 125 39 193 107 218 218 20 83 14 195 -14 258 -43 97 -131 154 -262 171 -15
2 -47 6 -70 10 -71 12 -869 11 -873 -1z"/>
<path d="M2940 2888 l0 -423 443 1 c243 0 462 4 487 8 257 41 375 189 366 461
-2 84 -7 109 -29 156 -35 73 -88 125 -163 161 -110 52 -166 57 -656 58 l-448
1 0 -423z"/>
</g>
</svg>
