<svg width="232" height="33" viewBox="0 0 232 33" fill="none" xmlns="http://www.w3.org/2000/svg">
<path d="M29.498 32.2429V0H36.8435V32.2429H29.498ZM172.31 20.1808C172.31 12.3714 166.279 7.5388 159.165 7.5388C152.052 7.5388 146.021 12.41 146.021 20.1808C146.021 27.9902 152.052 32.8615 159.165 32.8615C166.279 32.8615 172.31 27.9129 172.31 20.1808ZM165.08 20.1808C165.08 24.2402 162.336 26.5598 159.165 26.5598C155.995 26.5598 153.25 24.2788 153.25 20.1808C153.25 16.0441 155.995 13.8791 159.165 13.8791C162.336 13.8791 165.08 16.0441 165.08 20.1808ZM26.5598 22.9644C26.5598 19.3303 24.6654 16.5467 21.302 15.3096C24.4721 13.5698 25.5933 11.2889 25.5933 8.58264C25.5933 3.86606 22.1911 2.35908e-06 14.575 0.0386629H0V32.2815H15.2323C22.887 32.2429 26.5598 28.4155 26.5598 22.9644ZM17.8225 9.51049C17.8225 11.7141 16.4307 12.9513 13.7631 12.9513H7.65479V6.22435H13.7631C16.1988 6.26301 17.8225 7.30684 17.8225 9.51049ZM18.4797 22.4618C18.4797 24.5494 17.0106 25.9412 14.2657 25.9412H7.65479V18.9437H14.2657C16.9333 18.9823 18.4797 20.3354 18.4797 22.4618ZM90.543 14.1498C88.5326 9.93576 84.7825 7.61613 79.0608 7.61613C72.3339 7.61613 66.3415 11.8301 66.3415 20.2195C66.3415 28.3768 71.638 32.9001 78.9835 32.9001C84.1253 32.9001 88.494 30.8511 90.543 26.4052L84.6279 23.351C83.5454 25.3227 81.883 26.5598 79.2541 26.5598C75.852 26.5598 73.6483 24.1242 73.6483 20.1808C73.6483 16.2374 76.1612 13.8791 79.2154 13.8791C81.5737 13.8791 83.3908 14.9616 84.5119 17.2813L90.543 14.1498ZM198.792 14.1498C196.782 9.93576 193.032 7.61613 187.31 7.61613C180.583 7.61613 174.591 11.8301 174.591 20.2195C174.591 28.3768 179.887 32.9001 187.233 32.9001C192.375 32.9001 196.743 30.8511 198.792 26.4052L192.877 23.351C191.795 25.3227 190.132 26.5598 187.504 26.5598C184.101 26.5598 181.898 24.1242 181.898 20.1808C181.898 16.2374 184.411 13.8791 187.465 13.8791C189.823 13.8791 191.64 14.9616 192.761 17.2813L198.792 14.1498ZM137.206 32.2429L131.059 21.4179H126.343V32.2429H118.765V0H132.412C139.796 0 144.938 3.55677 144.938 10.477C144.938 14.923 142.735 18.0545 138.83 19.9875L145.905 32.2429H137.206ZM126.42 15.0003H132.064C135.544 15.0003 137.245 13.0286 137.245 10.709C137.245 7.92541 135.621 6.41765 132.064 6.41765H126.42V15.0003ZM65.143 31.8176V26.7531C64.8337 26.8304 64.3698 26.9464 63.9059 26.9464C62.978 26.9464 62.4754 26.4438 62.4754 25.5933V17.2039C62.4754 10.9409 58.2614 7.61613 51.3025 7.61613C46.7792 7.61613 42.9132 9.27853 40.5162 11.4049L44.5756 15.9668C46.1993 14.5364 48.3257 13.6472 50.452 13.6472C53.6608 13.6472 55.2072 15.2709 55.2072 17.8998V18.673C53.6995 18.3251 51.7664 17.9385 49.4468 17.9385C43.5704 17.9385 39.7817 20.7607 39.7817 25.4386C39.7817 30.2325 42.9518 32.7455 47.9004 32.7455C51.2639 32.7455 54.2794 31.3537 55.8258 29.5753C56.7537 31.9336 58.8413 32.5908 60.8517 32.5908C62.1661 32.6295 63.7899 32.3975 65.143 31.8176ZM55.2072 24.2402C55.2072 26.4438 53.1196 27.8742 50.684 27.8742C48.403 27.8742 47.2818 26.7144 47.2818 25.0907C47.2818 23.3896 48.519 22.1525 51.0706 22.1525C52.6556 22.1525 54.0088 22.4231 55.2072 22.6937V24.2402ZM225.043 32.2429L216.383 17.2426L224.502 8.428H216.344L207.8 17.9385V0.0773258H200.494V32.3202H207.8V26.4825L211.28 22.7711L216.731 32.3202H225.004V32.2429H225.043ZM116.871 32.2429L108.211 17.2426L116.33 8.428H108.095L99.6282 17.9385V0.0773258H92.3213V32.3202H99.6282V26.4825L103.108 22.7711L108.559 32.3202H116.832V32.2429H116.871ZM229.528 27.7583C231.035 27.7583 231.963 28.6861 231.963 30.1166C231.963 31.547 231.074 32.4748 229.528 32.4748C228.02 32.4748 227.092 31.547 227.092 30.1166C227.131 28.6861 228.02 27.7583 229.528 27.7583ZM229.528 32.2042C230.726 32.2042 231.538 31.4697 231.538 30.1552C231.538 28.8021 230.687 28.1062 229.528 28.1062C228.329 28.1062 227.517 28.8408 227.517 30.1552C227.479 31.5083 228.329 32.2042 229.528 32.2042ZM228.6 28.9181H229.566C230.146 28.9181 230.455 29.2274 230.455 29.6913C230.455 30.0779 230.262 30.3099 229.953 30.4645L230.417 31.315H229.953L229.566 30.5418H229.025V31.315H228.561V28.9181H228.6ZM229.025 29.266V30.1166H229.528C229.837 30.1166 230.03 30.0392 230.03 29.73C230.03 29.4593 229.914 29.3434 229.566 29.3434H229.025V29.266Z"/>
</svg>
