<svg width="232" height="42" viewBox="0 0 232 42" fill="none" xmlns="http://www.w3.org/2000/svg">
<path d="M59.6146 13.6471H52.3464V10.5156H70.4008V13.6471H63.1327V31.3923H59.6146V13.6471Z"/>
<path d="M73.687 10.5156H77.4757L82.3082 26.3664L86.9089 10.5156H90.195L94.7183 26.3664H94.7956L99.5508 10.5156H103.34L96.7286 31.3923H92.9399L88.4939 16.0827L84.0866 31.3923H80.2979L73.687 10.5156Z"/>
<path d="M115.324 10.0903C121.355 10.0903 125.956 14.3043 125.956 20.7606C125.956 27.4103 121.355 31.7789 115.324 31.7789C109.293 31.7789 104.615 27.4103 104.615 20.7606C104.615 14.3043 109.293 10.0903 115.324 10.0903ZM115.324 28.6474C119.19 28.6474 122.322 25.7479 122.322 20.7993C122.322 16.1214 119.268 13.1832 115.324 13.1832C111.381 13.1832 108.327 16.0827 108.327 20.7993C108.327 25.7092 111.381 28.6474 115.324 28.6474Z"/>
<path d="M156.575 10.5156H160.093V21.7658V31.3923H156.575V19.7168V10.5156Z"/>
<path d="M175.403 10.0903C178.302 10.0903 180.699 10.9795 182.826 12.4486C182.826 12.4486 180.815 14.8842 180.661 14.8069C179.114 13.8404 177.452 13.2605 175.519 13.2605C171.266 13.2605 168.444 16.3147 168.444 20.7993C168.444 25.5545 171.111 28.6474 175.519 28.6474C177.143 28.6474 178.65 28.2221 179.694 27.6809C179.694 22.655 179.694 22.655 179.694 22.655C174.475 22.655 174.475 22.655 174.475 22.655C174.475 19.9874 174.475 19.9874 174.475 19.9874C183.019 19.9874 183.019 19.9874 183.019 19.9874C183.019 29.5366 183.019 29.5366 183.019 29.5366C181.009 30.9284 178.341 31.8176 175.441 31.8176C168.908 31.8176 164.81 27.3716 164.81 20.7993C164.771 14.6523 168.985 10.0903 175.403 10.0903Z"/>
<path d="M188.045 10.5156H191.679L198.522 20.2967L205.365 10.5156H208.999V31.3923H205.519V15.7734L198.522 25.6318L191.524 15.7734V31.3923H188.045V10.5156Z"/>
<path d="M220.056 10.5156H224.231L231.963 31.3923H228.097L226.551 26.869H217.775L216.151 31.3923H212.285L220.056 10.5156ZM218.741 24.0081H225.507L222.143 14.227H222.066L218.741 24.0081Z"/>
<path d="M138.057 26.869C139.912 27.9128 141.691 28.57 144.01 28.57C146.755 28.57 148.108 27.4489 148.108 25.7478C148.108 21.0699 136.356 24.1241 136.356 16.1213C136.356 12.7965 139.178 10.129 143.856 10.129C146.601 10.129 149.346 10.7862 151.511 12.062C149.191 14.4976 149.191 14.4976 149.191 14.4976C147.49 13.7631 146.059 13.2991 143.972 13.2991C141.536 13.2991 140.183 14.4976 140.183 16.1213C140.183 20.7993 151.859 17.5904 151.859 25.7478C151.859 29.1499 149.268 31.8175 144.049 31.8175C140.995 31.8175 137.67 30.6964 135.66 29.3046L138.057 26.869Z"/>
<path d="M20.7607 0L0 20.954L20.7607 41.8307L41.6374 20.954L20.7607 0Z"/>
<path d="M9.81974 26.869C9.6651 20.1421 17.6292 21.0313 17.6292 17.6292C17.6292 16.508 16.8173 15.5415 14.8843 15.5415C13.4538 15.5415 12.0621 16.2761 11.0955 17.1652C9.6651 15.6961 9.6651 15.6961 9.6651 15.6961C10.8636 14.4977 12.8739 13.4925 15.0003 13.4925C18.2864 13.4925 19.9875 15.3482 19.9875 17.5518C19.9875 22.655 12.2554 21.7658 12.2554 25.9798C19.9101 25.9798 19.9101 25.9798 19.9101 25.9798C19.9101 27.9902 19.9101 27.9902 19.9101 27.9902C9.8584 27.9902 9.8584 27.9902 9.8584 27.9902V26.869H9.81974Z" fill="white"/>
<path d="M25.9412 26.3664C24.3948 26.3664 23.4283 25.3999 23.4283 23.4669C23.4283 21.0313 25.052 18.8663 26.985 18.8663C28.5315 18.8663 29.498 19.8328 29.498 21.7658C29.4593 24.2014 27.8742 26.3664 25.9412 26.3664ZM35.6837 16.9719C27.1397 16.9719 27.1397 16.9719 27.1397 16.9719C23.6602 16.9719 21.1086 19.7168 21.1086 23.4282C21.1086 26.4437 22.9643 28.1835 25.7092 28.1835C29.1887 28.1835 31.8176 25.3613 31.8176 21.7272C31.8176 20.5287 31.5083 19.4462 30.9284 18.7116C33.9053 18.7116 33.9053 18.7116 33.9053 18.7116L35.6837 16.9719Z" fill="white"/>
</svg>
