<svg width="167" height="158" viewBox="0 0 167 158" fill="none" xmlns="http://www.w3.org/2000/svg">
<path d="M0 0V102.85H40.3835V69.0166L64.7622 102.85H91.0317L115.41 68.7465V102.85H156.469V0H102.715L77.9983 34.7784L53.2144 0H0ZM159.643 4.45704V106.091H117.706L123.379 113.992H166.937V14.5192L159.643 4.45704ZM112.236 79.0787L92.5849 106.091H67.1258L72.7984 113.992H98.5952L112.236 95.1511V79.0787ZM43.6925 79.2813V106.091H2.29605L8.03618 113.992H51.0534V89.546L43.6925 79.2813Z"/>
<path d="M64.8972 126.418C59.766 126.418 55.578 130.838 55.578 138.911C55.578 146.985 59.4313 151.472 64.7622 151.472C68.0709 151.472 69.824 150.593 71.2452 148.703H71.3127V151.134H73.2036V139.721H64.9648V141.545H71.0426V143.773C71.0426 147.016 68.8151 149.648 65.4375 149.648C59.2814 149.648 57.8065 144.147 57.8065 138.911C57.8065 132.325 60.5583 128.241 64.7622 128.241C68.3035 128.241 70.1811 130.741 70.9075 133.846L72.9334 133.441C72.1074 129.285 69.3297 126.418 64.8972 126.418ZM0 126.756V151.134H2.16099V128.579H2.22852L9.45433 151.134H11.5478L18.7061 128.579H18.7736V151.134H20.9346V126.756H17.0853L10.4673 147.42H10.3998L3.84926 126.756H0ZM148.838 126.756V151.134H150.797V126.756H148.838ZM29.9162 133.238C27.1369 133.238 25.0575 134.386 23.5683 137.223L24.9189 138.033C26.1772 136.006 27.8649 134.859 29.9162 134.859C32.8633 134.859 33.833 136.041 33.833 138.371V139.586C26.652 141.206 22.8255 142.084 22.8255 146.88C22.8255 149.786 24.8738 151.472 27.5526 151.472C30.2004 151.472 31.7142 150.629 33.7655 148.973L34.0356 151.134H35.994C35.796 149.95 35.7239 148.773 35.7239 147.893V138.708C35.7239 134.826 33.8225 133.238 29.9162 133.238ZM45.1782 133.238C43.1768 133.485 41.8026 134.63 40.1809 136.345V133.576H38.2225V151.134H40.1809V138.168C42.3649 136.144 43.5991 134.859 45.7185 134.859C48.3646 134.859 49.2301 136.412 49.2301 139.316V151.134H51.1885V139.114C51.1885 135.293 49.699 133.238 46.1236 133.238C45.8092 133.238 45.4641 133.203 45.1782 133.238ZM82.3878 133.238C80.2017 133.238 78.3194 134.725 77.3905 136.885H77.3229V133.576H75.3645V151.134H77.3229V141.207C77.3229 137.831 80.2017 135.197 82.3878 135.197H83.2657V133.238H82.3878ZM90.0863 133.238C84.7287 133.238 82.9955 137.596 82.9955 142.355C82.9955 147.118 84.7287 151.472 90.0863 151.472C95.452 151.472 97.177 147.118 97.177 142.355C97.177 137.596 95.452 133.238 90.0863 133.238ZM120.745 133.238C118.525 133.238 116.902 134.253 115.545 136.277H115.478V133.576H113.52V157.347H115.478V148.838C117.167 150.661 118.562 151.472 120.88 151.472C124.885 151.472 127.701 148.537 127.701 142.423C127.701 137.595 125.214 133.238 120.745 133.238ZM140.194 133.238C137.978 133.238 136.42 134.253 135.062 136.277H134.994V133.576H132.968V157.347H134.994V148.838C136.683 150.661 138.015 151.472 140.329 151.472C144.338 151.472 147.15 148.537 147.15 142.423C147.15 137.595 144.664 133.238 140.194 133.238ZM160.183 133.238C155.75 133.238 152.755 136.312 152.755 142.355C152.755 147.659 155.351 151.472 160.183 151.472C163.461 151.472 165.479 149.445 166.937 146.947L165.316 146.204C163.926 148.465 162.629 149.851 160.183 149.851C156.742 149.851 154.781 146.844 154.781 142.355C154.781 136.918 156.94 134.859 160.183 134.859C162.466 134.859 163.746 136.482 164.64 138.506L166.464 137.966C165.437 135.056 163.426 133.238 160.183 133.238ZM98.7303 133.576V145.529C98.7303 149.345 100.293 151.472 103.863 151.472C106.381 151.472 107.881 150.327 109.738 148.365V151.134H111.696V133.576H109.738V146.475C107.549 148.505 106.387 149.851 104.268 149.851C101.623 149.851 100.756 148.23 100.756 145.327V133.576H98.7303ZM90.0863 134.859C93.6317 134.859 95.1511 137.596 95.1511 142.355C95.1511 147.118 93.6317 149.851 90.0863 149.851C86.5474 149.851 84.9539 147.118 84.9539 142.355C84.9539 137.596 86.5474 134.859 90.0863 134.859ZM120.678 134.859C124.12 134.859 125.675 138.44 125.675 142.085C125.675 146.952 123.919 149.851 120.34 149.851C118.387 149.851 116.143 147.86 115.478 146.677V138.033C117.167 136.21 118.49 134.859 120.678 134.859ZM140.127 134.859C143.568 134.859 145.124 138.44 145.124 142.085C145.124 146.952 143.43 149.851 139.857 149.851C137.9 149.851 135.653 147.86 134.994 146.677V138.033C136.683 136.21 137.943 134.859 140.127 134.859ZM33.6979 141.207V146.947C31.9775 148.737 29.7433 149.851 27.8903 149.851C26.1031 149.851 24.7839 148.74 24.7839 146.812C24.7839 144.584 25.8222 142.961 33.6979 141.207Z"/>
</svg>
